<svg width="1920" height="790" viewBox="0 0 1920 790" fill="none" xmlns="http://www.w3.org/2000/svg">
<rect width="1920" height="790" fill="url(#paint0_radial_518_12)"/>
<g filter="url(#filter0_d_518_12)">
<mask id="mask0_518_12" style="mask-type:luminance" maskUnits="userSpaceOnUse" x="529" y="209" width="862" height="373">
<path d="M1391 209H529V581.757H1391V209Z" fill="white"/>
</mask>
<g mask="url(#mask0_518_12)">
<path d="M1178.45 450.004C1177.06 446.649 1172.45 444.857 1164.37 444.532C1163.97 444.514 1163.57 444.497 1163.14 444.485C1130.4 443.389 1023.79 447.84 975.83 450.399C926.692 453.011 873.966 458.306 860.648 460.665C852.193 462.163 852.26 466.314 852.487 467.558C853.072 470.784 857.404 473.756 862.904 473.944C863.899 473.974 864.938 473.921 865.995 473.75C949.651 460.671 1118.83 463.242 1161.86 468.36C1164.85 468.726 1167.84 467.759 1169.99 465.654C1173.71 462.015 1180.61 455.246 1178.45 450.004ZM996.522 318.346C1004.87 317.884 1015.32 297.571 1015.64 287.448C1015.92 278.53 1005.17 273.588 999.394 273.913C990.192 274.426 986.316 289.319 985.984 299.92C985.581 312.934 991.816 318.606 996.522 318.346ZM1141.76 340.701C1140.42 330.448 1137.72 325.554 1133.12 325.771C1113.87 326.695 1096.61 407.838 1108.67 407.264C1117.59 406.837 1134.74 360.55 1141.76 340.701ZM862.946 340.586C856.115 340.891 843.434 363.945 832.646 385.806L825.871 400.553L822.748 406.625L822.819 407.07C824.295 417.007 829.361 422.337 835.274 422.077C845.369 421.627 850.837 407.869 854.101 400.692C854.186 400.508 854.264 400.324 854.349 400.146C858.693 390.736 861.788 380.748 863.999 371.071C864.818 367.498 871.515 340.212 862.946 340.586ZM674.369 392.3C695.811 394.914 707.317 362.319 703.228 349.904C702.571 347.903 699.585 347.341 697.738 348.852C688.386 356.515 678.202 374.546 674.369 392.3ZM926.614 370.22C942.516 343.132 957.855 286 956.161 273.898C949.832 274.22 932.206 329.296 926.614 370.22ZM1193.69 362.662C1214.89 365.258 1226.37 333.341 1222.69 320.579C1222.02 318.254 1218.83 317.594 1216.74 319.355C1207.48 327.19 1197.49 345.062 1193.69 362.662ZM1277.97 377.776C1269.14 376.079 1259.94 382.826 1253.2 388.354C1245.87 394.372 1240.53 402.448 1233.04 408.252C1225.48 414.098 1216.85 417.854 1207.54 418.32C1187.74 419.294 1176.37 405.537 1173.45 388.44C1173.33 389.922 1173.23 391.405 1173.18 392.876C1173.11 394.96 1173.18 397.019 1173.34 399.053C1167.62 407.234 1160.96 413.362 1153.73 413.718C1139.21 414.435 1130.42 404.409 1129.55 391.038C1129.3 390.517 1129.32 389.714 1129.34 389.169C1123.35 406.903 1115.61 421.225 1102.96 421.85C1093.81 422.303 1079.86 414.398 1078.13 394.372C1078.04 393.213 1078.01 392.012 1077.99 390.787C1077.2 395.082 1076.71 399.206 1076.59 402.994C1066.96 415.397 1054.04 425.87 1037.55 426.673C1017.98 427.635 1008.43 414.135 1006 397.282C1005.74 399.47 1005.52 401.658 1005.44 403.845C1005.37 405.782 1005.41 407.706 1005.5 409.6C999.889 417.732 993.381 423.75 986.353 424.099C978.554 424.485 963.698 419.043 962.945 402.179C962.896 401.112 962.903 399.728 962.952 398.146C962.334 400.947 961.881 403.331 961.654 405.102C961.349 407.449 961.318 409.642 961.471 411.708C953.893 422.211 944.216 430.46 932.412 431.042C918.692 431.71 909.365 421.978 906.741 404.679C906.698 404.36 906.673 404.042 906.624 403.729C889.492 413.681 873.908 416.727 865.057 417.622C867.914 418.075 871.571 418.492 875.951 418.633C869.425 427.923 860.598 435.375 849.271 435.932C839.857 436.398 831.674 432.237 826.505 426.33C821.906 450.419 814.083 492.152 815.881 502.257C813.355 505.333 791.666 503.452 791.231 492.74C790.877 480.373 794.693 454.911 799.898 427.623C795.36 433.187 790.357 436.956 785.06 437.213C773.218 437.795 763.01 430.251 754.795 419.387L750.826 413.117L758.288 399.899C736.11 422.193 709.717 441.546 684.921 442.759C660.975 443.935 649.33 423.591 650.094 401.829C650.186 399.127 650.418 396.394 650.754 393.655C655.415 395.04 659.727 395.879 662.945 396.382C651.715 391.473 633.017 380.369 630.154 360.011C626.472 333.838 658.15 334.102 652.058 351.701C648.657 361.519 650.754 369.626 654.681 375.92C658.516 363.799 664.694 352.222 673.318 342.853C681.667 333.783 695.472 327.091 707.081 330.627C716.959 333.623 720.311 344.519 719.975 354.141C719.1 379.125 697.821 411.818 675.624 401.382L675.502 404.875C675.104 416.157 680.615 427.684 692.451 427.101C705.968 426.44 723.901 412.872 741.455 395.536C733.327 376.582 729.565 357.505 731.015 354.312C734.966 348.76 749.615 344.55 756.288 345.831C756.055 352.553 758.166 363.106 761.42 374.198C782.344 350.298 799.69 326.013 803.74 319.799C805.832 320.123 811.202 327.287 810.59 331.05C809.764 335.149 792.014 363.486 767.169 390.59L770.295 398.52C776.002 411.91 782.363 422.058 786.669 421.85C792.638 421.555 800.675 407.014 806.932 393.361C814.651 358.142 822.786 327.808 825.117 327.692C832.921 327.312 847.289 331.16 849.05 334.561C846.518 337.907 842.848 350.69 837.864 370.251C837.576 370.797 837.839 371.054 838.09 371.575C846.414 348.637 856.8 328.01 869.18 327.404C879.67 326.883 891.468 334.886 893.211 354.385C894.123 366.679 891.627 384.229 885.719 399.813C884.538 402.92 883.039 406.174 881.388 409.416C888.734 406.621 897.34 402.277 905.909 396.1C905.389 386.141 906.325 375.889 907.573 365.95C910.24 344.734 915.053 323.389 922.179 302.848C927.751 286.786 935.617 264.002 954.517 259.553C962.744 257.617 970.768 261.747 973.129 269.536C974.579 274.31 974.481 279.886 974.304 284.948C973.282 306.464 950.761 367.107 928.289 387.526C924.087 391.479 919.854 394.911 915.652 397.908C919.824 396.112 923.959 394.041 928.155 391.528C927.867 406.033 930.405 415.851 938.063 415.477C947.128 415.029 956.602 400.916 963.703 387.208C965.801 365.545 971.906 331.742 980.187 331.331C982.946 331.197 990.231 332.698 996.005 334.886C999.057 336.044 1000.48 339.433 999.344 342.669C994.867 355.378 987.166 385.204 986.665 399.672C986.438 406.119 987.692 408.748 990.108 408.625C994.616 408.405 1000.3 399.819 1005.39 389.898C1005.36 388.482 1005.36 387.048 1005.41 385.608C1005.69 377.409 1007.27 369.136 1009.71 361.126C1013.79 347.779 1020.57 332.361 1032.13 323.322C1042.87 314.927 1057.27 312.555 1068.03 319.787C1069.97 321.098 1071.77 323.046 1073.26 325.326C1073.6 324.879 1073.95 324.456 1074.42 324.174C1076.42 322.954 1078.8 322.697 1081.56 323.414C1084.3 324.137 1086.21 325.443 1087.27 327.355C1087.6 327.955 1087.79 328.599 1087.84 329.285C1087.89 329.977 1087.75 330.78 1087.42 331.7C1087.09 332.624 1086.69 333.55 1086.2 334.481C1085.71 335.425 1085.1 336.59 1084.37 337.999L1075.88 352.333C1072.52 357.37 1069.5 361.225 1066.82 363.914C1062.46 369.332 1057.34 372.599 1052.86 372.819C1052.05 372.855 1051.21 372.801 1050.37 372.623C1047.71 372.053 1046.7 368.774 1048.58 366.568C1052.59 361.838 1057.65 350.752 1057.98 341.186C1058.06 339.108 1057.82 336.896 1057.38 334.647C1057.16 333.525 1055.87 332.998 1054.84 333.618C1044.7 339.703 1031.57 366.82 1030.81 388.66C1030.42 399.936 1033.24 411.598 1045.07 411.022C1057.48 410.409 1069.4 396.841 1078.35 382.109C1080.89 354.894 1096.33 318.487 1120.23 311.844C1144.94 304.969 1161.12 325.118 1153.96 337.809L1153.12 338.925C1156.6 340.42 1159.91 342.693 1162.2 345.61C1163.91 347.798 1164.17 350.844 1163.18 353.644C1155.9 374.075 1150.91 398.569 1157.5 398.251C1162.14 398.018 1167.73 390.076 1172.71 380.81C1172.68 379.67 1172.67 378.53 1172.71 377.384C1173.43 356.739 1181.22 334.39 1195.93 318.407C1204.28 309.332 1218.09 302.652 1229.69 306.182C1239.57 309.184 1242.93 320.074 1242.59 329.695C1241.72 354.679 1220.43 387.373 1198.24 376.931L1193.46 374.468L1198.12 380.608C1197.79 391.835 1203.29 403.239 1215.07 402.663C1240.82 401.394 1246.5 362.959 1271.66 357.928C1295.85 353.086 1294.5 380.957 1277.97 377.776ZM1208.53 289.223C1208.67 285.216 1225.05 252.357 1237.49 251.698C1242.52 251.424 1248.01 253.134 1251.03 257.826C1256.33 265.546 1261.07 282.423 1260.41 286.75C1259.38 293.942 1242.92 296.532 1240.81 296.076C1241.46 292.329 1238.56 267.635 1234.59 267.843C1230.35 268.072 1217.42 292.46 1216.54 294.79C1213.37 294.966 1208.49 290.653 1208.53 289.223Z" fill="#E3E6DB"/>
</g>
</g>
<defs>
<filter id="filter0_d_518_12" x="625.855" y="251.67" width="668.287" height="259.92" filterUnits="userSpaceOnUse" color-interpolation-filters="sRGB">
<feFlood flood-opacity="0" result="BackgroundImageFix"/>
<feColorMatrix in="SourceAlpha" type="matrix" values="0 0 0 0 0 0 0 0 0 0 0 0 0 0 0 0 0 0 127 0" result="hardAlpha"/>
<feOffset dy="4"/>
<feGaussianBlur stdDeviation="2"/>
<feComposite in2="hardAlpha" operator="out"/>
<feColorMatrix type="matrix" values="0 0 0 0 0 0 0 0 0 0 0 0 0 0 0 0 0 0 0.37 0"/>
<feBlend mode="normal" in2="BackgroundImageFix" result="effect1_dropShadow_518_12"/>
<feBlend mode="normal" in="SourceGraphic" in2="effect1_dropShadow_518_12" result="shape"/>
</filter>
<radialGradient id="paint0_radial_518_12" cx="0" cy="0" r="1" gradientUnits="userSpaceOnUse" gradientTransform="translate(960 395) rotate(90) scale(395 960)">
<stop stop-color="#FFD586"/>
<stop offset="1" stop-color="#F6AB1C"/>
</radialGradient>
</defs>
</svg>
